
<svg width="131" height="89" viewBox="0 0 131 89" fill="none" xmlns="http://www.w3.org/2000/svg">
<path d="M59.5758 17.8013C59.8517 17.7893 60.0656 17.556 60.0536 17.2801C60.0417 17.0042 59.8083 16.7903 59.5324 16.8022L59.5758 17.8013ZM13.4995 19.802L59.5758 17.8013L59.5324 16.8022L13.4561 18.8029L13.4995 19.802Z" fill="black"/>
<line x1="59.4476" y1="17.312" x2="19.9036" y2="22.9507" stroke="black"/>
<path d="M20.7038 22.3273L27.5933 78.8934" stroke="black"/>
<path d="M14.011 19.4665L12.4491 74.9468" stroke="black"/>
<path d="M12.6228 74.5671C15.5233 72.1825 23.6116 76.4788 24.8578 80.0244" stroke="black"/>
<path d="M18.4014 19.5393L25.0236 79.8099" stroke="black"/>
<path d="M43.056 47.1266V49.8386H38.592V63.8786H35.232V49.8386H30.768V47.1266H43.056ZM48.8676 52.6466C49.2996 51.9426 49.8596 51.3906 50.5476 50.9906C51.2516 50.5906 52.0516 50.3906 52.9476 50.3906V53.9186H52.0596C51.0036 53.9186 50.2036 54.1666 49.6596 54.6626C49.1316 55.1586 48.8676 56.0226 48.8676 57.2546V63.8786H45.5076V50.5826H48.8676V52.6466ZM54.3467 57.1826C54.3467 55.8386 54.6107 54.6466 55.1387 53.6066C55.6827 52.5666 56.4107 51.7666 57.3227 51.2066C58.2507 50.6466 59.2827 50.3666 60.4187 50.3666C61.4107 50.3666 62.2747 50.5666 63.0107 50.9666C63.7627 51.3666 64.3627 51.8706 64.8107 52.4786V50.5826H68.1947V63.8786H64.8107V61.9346C64.3787 62.5586 63.7787 63.0786 63.0107 63.4946C62.2587 63.8946 61.3867 64.0946 60.3947 64.0946C59.2747 64.0946 58.2507 63.8066 57.3227 63.2306C56.4107 62.6546 55.6827 61.8466 55.1387 60.8066C54.6107 59.7506 54.3467 58.5426 54.3467 57.1826ZM64.8107 57.2306C64.8107 56.4146 64.6507 55.7186 64.3307 55.1426C64.0107 54.5506 63.5787 54.1026 63.0347 53.7986C62.4907 53.4786 61.9067 53.3186 61.2827 53.3186C60.6587 53.3186 60.0827 53.4706 59.5547 53.7746C59.0267 54.0786 58.5947 54.5266 58.2587 55.1186C57.9387 55.6946 57.7787 56.3826 57.7787 57.1826C57.7787 57.9826 57.9387 58.6866 58.2587 59.2946C58.5947 59.8866 59.0267 60.3426 59.5547 60.6626C60.0987 60.9826 60.6747 61.1426 61.2827 61.1426C61.9067 61.1426 62.4907 60.9906 63.0347 60.6866C63.5787 60.3666 64.0107 59.9186 64.3307 59.3426C64.6507 58.7506 64.8107 58.0466 64.8107 57.2306ZM70.6123 57.1826C70.6123 55.8386 70.8763 54.6466 71.4043 53.6066C71.9483 52.5666 72.6843 51.7666 73.6123 51.2066C74.5403 50.6466 75.5723 50.3666 76.7083 50.3666C77.5723 50.3666 78.3963 50.5586 79.1803 50.9426C79.9643 51.3106 80.5883 51.8066 81.0523 52.4306V46.1186H84.4603V63.8786H81.0523V61.9106C80.6363 62.5666 80.0523 63.0946 79.3003 63.4946C78.5483 63.8946 77.6763 64.0946 76.6843 64.0946C75.5643 64.0946 74.5403 63.8066 73.6123 63.2306C72.6843 62.6546 71.9483 61.8466 71.4043 60.8066C70.8763 59.7506 70.6123 58.5426 70.6123 57.1826ZM81.0763 57.2306C81.0763 56.4146 80.9163 55.7186 80.5963 55.1426C80.2763 54.5506 79.8443 54.1026 79.3003 53.7986C78.7563 53.4786 78.1723 53.3186 77.5483 53.3186C76.9243 53.3186 76.3483 53.4706 75.8203 53.7746C75.2923 54.0786 74.8603 54.5266 74.5243 55.1186C74.2043 55.6946 74.0443 56.3826 74.0443 57.1826C74.0443 57.9826 74.2043 58.6866 74.5243 59.2946C74.8603 59.8866 75.2923 60.3426 75.8203 60.6626C76.3643 60.9826 76.9403 61.1426 77.5483 61.1426C78.1723 61.1426 78.7563 60.9906 79.3003 60.6866C79.8443 60.3666 80.2763 59.9186 80.5963 59.3426C80.9163 58.7506 81.0763 58.0466 81.0763 57.2306ZM100.102 56.9426C100.102 57.4226 100.07 57.8546 100.006 58.2386H90.2859C90.3659 59.1986 90.7019 59.9506 91.2939 60.4946C91.8859 61.0386 92.6139 61.3106 93.4779 61.3106C94.7259 61.3106 95.6139 60.7746 96.1419 59.7026H99.7659C99.3819 60.9826 98.6459 62.0386 97.5579 62.8706C96.4699 63.6866 95.1339 64.0946 93.5499 64.0946C92.2699 64.0946 91.1179 63.8146 90.0939 63.2546C89.0859 62.6786 88.2939 61.8706 87.7179 60.8306C87.1579 59.7906 86.8779 58.5906 86.8779 57.2306C86.8779 55.8546 87.1579 54.6466 87.7179 53.6066C88.2779 52.5666 89.0619 51.7666 90.0699 51.2066C91.0779 50.6466 92.2379 50.3666 93.5499 50.3666C94.8139 50.3666 95.9419 50.6386 96.9339 51.1826C97.9419 51.7266 98.7179 52.5026 99.2619 53.5106C99.8219 54.5026 100.102 55.6466 100.102 56.9426ZM96.6219 55.9826C96.6059 55.1186 96.2939 54.4306 95.6859 53.9186C95.0779 53.3906 94.3339 53.1266 93.4539 53.1266C92.6219 53.1266 91.9179 53.3826 91.3419 53.8946C90.7819 54.3906 90.4379 55.0866 90.3099 55.9826H96.6219Z" fill="black"/>
<path d="M60.4919 39.3661V29.9116H66.1609V30.9272H61.6368V34.1218H65.7362V35.1374H61.6368V39.3661H60.4919ZM71.9985 36.467V32.2752H73.0879V39.3661H71.9985V38.1658H71.9246C71.7584 38.5259 71.4999 38.8321 71.149 39.0845C70.7982 39.3338 70.355 39.4584 69.8195 39.4584C69.3763 39.4584 68.9824 39.3615 68.6377 39.1676C68.293 38.9706 68.0221 38.6752 67.8252 38.2812C67.6282 37.8842 67.5297 37.3841 67.5297 36.7809V32.2752H68.6192V36.707C68.6192 37.2241 68.7638 37.6365 69.0531 37.9442C69.3455 38.252 69.7179 38.4059 70.1703 38.4059C70.4412 38.4059 70.7166 38.3366 70.9967 38.1981C71.2798 38.0596 71.5168 37.8473 71.7076 37.5611C71.9015 37.2748 71.9985 36.9101 71.9985 36.467ZM80.1061 33.8633L79.1275 34.1403C79.0659 33.9771 78.9751 33.8186 78.8551 33.6648C78.7381 33.5078 78.5781 33.3785 78.375 33.277C78.1718 33.1754 77.9118 33.1246 77.5948 33.1246C77.1608 33.1246 76.7992 33.2247 76.5099 33.4247C76.2237 33.6217 76.0806 33.8725 76.0806 34.1772C76.0806 34.448 76.1791 34.6619 76.376 34.8189C76.573 34.9758 76.8808 35.1066 77.2993 35.2113L78.3519 35.4698C78.9859 35.6237 79.4583 35.8591 79.7691 36.1761C80.08 36.49 80.2354 36.8948 80.2354 37.3903C80.2354 37.7965 80.1185 38.1597 79.8846 38.4797C79.6537 38.7998 79.3306 39.0522 78.9151 39.2368C78.4996 39.4215 78.0164 39.5138 77.4655 39.5138C76.7423 39.5138 76.1437 39.3569 75.6697 39.043C75.1958 38.729 74.8957 38.2705 74.7695 37.6672L75.8036 37.4087C75.9021 37.7903 76.0883 38.0766 76.3622 38.2674C76.6392 38.4582 77.0008 38.5536 77.4471 38.5536C77.9549 38.5536 78.358 38.4459 78.6566 38.2305C78.9582 38.0119 79.109 37.7503 79.109 37.4457C79.109 37.1994 79.0228 36.9932 78.8505 36.827C78.6781 36.6578 78.4134 36.5316 78.0564 36.4485L76.8746 36.1715C76.2252 36.0176 75.7482 35.7791 75.4435 35.4559C75.1419 35.1297 74.9911 34.7219 74.9911 34.2326C74.9911 33.8325 75.1034 33.4786 75.3281 33.1708C75.5558 32.863 75.8651 32.6214 76.256 32.446C76.6499 32.2706 77.0962 32.1829 77.5948 32.1829C78.2965 32.1829 78.8474 32.3367 79.2475 32.6445C79.6507 32.9523 79.9369 33.3585 80.1061 33.8633ZM81.8754 39.3661V32.2752H82.9649V39.3661H81.8754ZM82.4294 31.0934C82.217 31.0934 82.0339 31.0211 81.88 30.8764C81.7292 30.7318 81.6538 30.5579 81.6538 30.3547C81.6538 30.1516 81.7292 29.9777 81.88 29.8331C82.0339 29.6884 82.217 29.6161 82.4294 29.6161C82.6417 29.6161 82.8233 29.6884 82.9741 29.8331C83.128 29.9777 83.205 30.1516 83.205 30.3547C83.205 30.5579 83.128 30.7318 82.9741 30.8764C82.8233 31.0211 82.6417 31.0934 82.4294 31.0934ZM87.8411 39.5138C87.2009 39.5138 86.6392 39.3615 86.156 39.0568C85.6759 38.7521 85.3005 38.3259 85.0296 37.778C84.7619 37.2302 84.628 36.5901 84.628 35.8576C84.628 35.1189 84.7619 34.4742 85.0296 33.9233C85.3005 33.3724 85.6759 32.9446 86.156 32.6399C86.6392 32.3352 87.2009 32.1829 87.8411 32.1829C88.4812 32.1829 89.0413 32.3352 89.5215 32.6399C90.0046 32.9446 90.3801 33.3724 90.6479 33.9233C90.9187 34.4742 91.0541 35.1189 91.0541 35.8576C91.0541 36.5901 90.9187 37.2302 90.6479 37.778C90.3801 38.3259 90.0046 38.7521 89.5215 39.0568C89.0413 39.3615 88.4812 39.5138 87.8411 39.5138ZM87.8411 38.5351C88.3273 38.5351 88.7274 38.4105 89.0413 38.1612C89.3553 37.9119 89.5876 37.5841 89.7384 37.1779C89.8892 36.7716 89.9646 36.3315 89.9646 35.8576C89.9646 35.3836 89.8892 34.942 89.7384 34.5327C89.5876 34.1233 89.3553 33.7925 89.0413 33.5401C88.7274 33.2877 88.3273 33.1616 87.8411 33.1616C87.3548 33.1616 86.9547 33.2877 86.6408 33.5401C86.3268 33.7925 86.0945 34.1233 85.9437 34.5327C85.7929 34.942 85.7175 35.3836 85.7175 35.8576C85.7175 36.3315 85.7929 36.7716 85.9437 37.1779C86.0945 37.5841 86.3268 37.9119 86.6408 38.1612C86.9547 38.4105 87.3548 38.5351 87.8411 38.5351ZM93.8067 35.1005V39.3661H92.7172V32.2752H93.7698V33.3832H93.8621C94.0283 33.0231 94.2807 32.7338 94.6192 32.5153C94.9577 32.2937 95.3948 32.1829 95.9303 32.1829C96.4104 32.1829 96.8305 32.2814 97.1906 32.4783C97.5507 32.6722 97.8307 32.9677 98.0308 33.3647C98.2308 33.7586 98.3308 34.2572 98.3308 34.8604V39.3661H97.2414V34.9343C97.2414 34.3772 97.0967 33.9433 96.8074 33.6324C96.5181 33.3185 96.1211 33.1616 95.6164 33.1616C95.2686 33.1616 94.9577 33.237 94.6838 33.3878C94.413 33.5386 94.1991 33.7586 94.0421 34.0479C93.8852 34.3372 93.8067 34.6881 93.8067 35.1005Z" fill="#4C7AF1"/>
<path d="M24.803 79.4892L19.4199 19.939L46.2956 18.5151L20.3503 21.8874L19.85 21.9524L19.9195 22.4522L27.7137 78.4314L24.803 79.4892Z" fill="black" stroke="black"/>
<path d="M23.8195 25.614C23.784 27.0864 24.9487 28.3088 26.421 28.3443C27.8934 28.3799 29.1157 27.2151 29.1513 25.7428C29.1869 24.2705 28.0221 23.0481 26.5498 23.0125C25.0775 22.977 23.8551 24.1417 23.8195 25.614ZM52.3416 24.3399C52.306 25.8122 53.4707 27.0346 54.9431 27.0701C56.4154 27.1057 57.6378 25.941 57.6733 24.4686C57.7089 22.9963 56.5442 21.7739 55.0718 21.7384C53.5995 21.7028 52.3771 22.8675 52.3416 24.3399ZM26.9807 25.7468C27.9171 18.9633 29.3852 14.3487 31.2114 11.523C32.121 10.1155 33.1074 9.17056 34.1431 8.6128C35.1734 8.05799 36.2797 7.87134 37.4624 8.02189C39.8551 8.32647 42.5835 10.0162 45.5188 12.9137C48.4411 15.7985 51.5093 19.8211 54.5852 24.672L55.4297 24.1365C52.3315 19.2503 49.2172 15.1594 46.2214 12.2021C43.2385 9.25757 40.313 7.37669 37.5887 7.0299C36.2129 6.85477 34.8948 7.07225 33.669 7.73235C32.4487 8.38951 31.3474 9.47022 30.3715 10.9802C28.4267 13.9895 26.9333 18.7768 25.9901 25.6101L26.9807 25.7468Z" fill="#4C7AF1"/>
<path d="M14.9682 73.4739L16.5786 63.6091L19.0661 74.1811L14.9682 73.4739Z" fill="black" stroke="black"/>
<path d="M24.8806 75.7454C24.6931 76.9456 25.1916 78.3802 25.137 79.9225C42.3112 73.7439 52.0528 73.1326 70.1946 72.8666C55.5852 71.1861 25.2908 73.1193 24.8806 75.7454Z" fill="black"/>
<path d="M25.3781 81.9881C25.7258 83.0834 26.4634 83.9509 26.9546 85.2065C47.7533 77.5226 59.3814 76.1372 81.8965 74.2595C63.4732 72.8605 24.3723 78.8188 25.3781 81.9881Z" fill="#4C7AF1"/>
</svg>